<mxfile host="app.diagrams.net" agent="Mozilla/5.0 (Windows NT 10.0; Win64; x64) AppleWebKit/537.36 (KHTML, like Gecko) Chrome/129.0.0.0 Safari/537.36" version="24.7.16">
  <diagram name="Halaman-1" id="07tKQwv7pC_PTj2mHfln">
    <mxGraphModel dx="654" dy="538" grid="1" gridSize="10" guides="1" tooltips="1" connect="1" arrows="1" fold="1" page="1" pageScale="1" pageWidth="827" pageHeight="1169" math="0" shadow="0">
      <root>
        <mxCell id="0" />
        <mxCell id="1" parent="0" />
        <mxCell id="P7x8ihLo9SLnNOzxiVw5-4" value="" style="edgeStyle=orthogonalEdgeStyle;rounded=0;orthogonalLoop=1;jettySize=auto;html=1;" edge="1" parent="1" source="P7x8ihLo9SLnNOzxiVw5-1" target="P7x8ihLo9SLnNOzxiVw5-2">
          <mxGeometry relative="1" as="geometry" />
        </mxCell>
        <mxCell id="P7x8ihLo9SLnNOzxiVw5-1" value="start" style="ellipse;whiteSpace=wrap;html=1;" vertex="1" parent="1">
          <mxGeometry x="354" y="40" width="120" height="80" as="geometry" />
        </mxCell>
        <mxCell id="P7x8ihLo9SLnNOzxiVw5-6" value="" style="edgeStyle=orthogonalEdgeStyle;rounded=0;orthogonalLoop=1;jettySize=auto;html=1;" edge="1" parent="1" source="P7x8ihLo9SLnNOzxiVw5-2" target="P7x8ihLo9SLnNOzxiVw5-5">
          <mxGeometry relative="1" as="geometry" />
        </mxCell>
        <mxCell id="P7x8ihLo9SLnNOzxiVw5-2" value="input nama&lt;div&gt;dan nim&lt;/div&gt;" style="shape=parallelogram;perimeter=parallelogramPerimeter;whiteSpace=wrap;html=1;fixedSize=1;" vertex="1" parent="1">
          <mxGeometry x="354" y="190" width="120" height="60" as="geometry" />
        </mxCell>
        <mxCell id="P7x8ihLo9SLnNOzxiVw5-9" value="" style="edgeStyle=orthogonalEdgeStyle;rounded=0;orthogonalLoop=1;jettySize=auto;html=1;" edge="1" parent="1" source="P7x8ihLo9SLnNOzxiVw5-5" target="P7x8ihLo9SLnNOzxiVw5-8">
          <mxGeometry relative="1" as="geometry" />
        </mxCell>
        <mxCell id="P7x8ihLo9SLnNOzxiVw5-5" value="input jam kerja" style="shape=parallelogram;perimeter=parallelogramPerimeter;whiteSpace=wrap;html=1;fixedSize=1;" vertex="1" parent="1">
          <mxGeometry x="354" y="310" width="120" height="60" as="geometry" />
        </mxCell>
        <mxCell id="P7x8ihLo9SLnNOzxiVw5-11" value="" style="edgeStyle=orthogonalEdgeStyle;rounded=0;orthogonalLoop=1;jettySize=auto;html=1;" edge="1" parent="1" source="P7x8ihLo9SLnNOzxiVw5-8" target="P7x8ihLo9SLnNOzxiVw5-10">
          <mxGeometry relative="1" as="geometry" />
        </mxCell>
        <mxCell id="P7x8ihLo9SLnNOzxiVw5-8" value="input tarif kerja" style="shape=parallelogram;perimeter=parallelogramPerimeter;whiteSpace=wrap;html=1;fixedSize=1;" vertex="1" parent="1">
          <mxGeometry x="354" y="440" width="120" height="60" as="geometry" />
        </mxCell>
        <mxCell id="P7x8ihLo9SLnNOzxiVw5-13" style="edgeStyle=orthogonalEdgeStyle;rounded=0;orthogonalLoop=1;jettySize=auto;html=1;exitX=0;exitY=0.5;exitDx=0;exitDy=0;entryX=0.5;entryY=0;entryDx=0;entryDy=0;" edge="1" parent="1" source="P7x8ihLo9SLnNOzxiVw5-10" target="P7x8ihLo9SLnNOzxiVw5-12">
          <mxGeometry relative="1" as="geometry" />
        </mxCell>
        <mxCell id="P7x8ihLo9SLnNOzxiVw5-14" value="YA" style="edgeLabel;html=1;align=center;verticalAlign=middle;resizable=0;points=[];" vertex="1" connectable="0" parent="P7x8ihLo9SLnNOzxiVw5-13">
          <mxGeometry x="-0.4148" relative="1" as="geometry">
            <mxPoint as="offset" />
          </mxGeometry>
        </mxCell>
        <mxCell id="P7x8ihLo9SLnNOzxiVw5-16" style="edgeStyle=orthogonalEdgeStyle;rounded=0;orthogonalLoop=1;jettySize=auto;html=1;exitX=1;exitY=0.5;exitDx=0;exitDy=0;entryX=0.5;entryY=0;entryDx=0;entryDy=0;" edge="1" parent="1" source="P7x8ihLo9SLnNOzxiVw5-10" target="P7x8ihLo9SLnNOzxiVw5-15">
          <mxGeometry relative="1" as="geometry" />
        </mxCell>
        <mxCell id="P7x8ihLo9SLnNOzxiVw5-18" value="TIDAK" style="edgeLabel;html=1;align=center;verticalAlign=middle;resizable=0;points=[];" vertex="1" connectable="0" parent="P7x8ihLo9SLnNOzxiVw5-16">
          <mxGeometry x="-0.5576" y="1" relative="1" as="geometry">
            <mxPoint as="offset" />
          </mxGeometry>
        </mxCell>
        <mxCell id="P7x8ihLo9SLnNOzxiVw5-10" value="Apakah jam kerja&lt;div&gt;&amp;gt;160 jam?&lt;/div&gt;" style="rhombus;whiteSpace=wrap;html=1;" vertex="1" parent="1">
          <mxGeometry x="349" y="570" width="130" height="120" as="geometry" />
        </mxCell>
        <mxCell id="P7x8ihLo9SLnNOzxiVw5-12" value="hitung bonus 10%&lt;div&gt;dari tarif kerja&lt;/div&gt;" style="rounded=0;whiteSpace=wrap;html=1;" vertex="1" parent="1">
          <mxGeometry x="220" y="710" width="120" height="60" as="geometry" />
        </mxCell>
        <mxCell id="P7x8ihLo9SLnNOzxiVw5-15" value="tidak dapat bonus" style="rounded=0;whiteSpace=wrap;html=1;" vertex="1" parent="1">
          <mxGeometry x="490" y="710" width="120" height="60" as="geometry" />
        </mxCell>
      </root>
    </mxGraphModel>
  </diagram>
</mxfile>
